<?xml version="1.0" encoding="utf-8"?>
<!-- Generator: Adobe Illustrator 28.3.0, SVG Export Plug-In . SVG Version: 6.00 Build 0)  -->
<svg version="1.1" id="Layer_1" xmlns="http://www.w3.org/2000/svg" xmlns:xlink="http://www.w3.org/1999/xlink" x="0px" y="0px"
	 viewBox="0 0 800 800" style="enable-background:new 0 0 800 800;" xml:space="preserve">
<style type="text/css">
	.st0{fill-rule:evenodd;clip-rule:evenodd;fill:#FFFFFF;}
</style>
<g id="Page-1">
	<g id="Dribbble-Light-Preview" transform="translate(-180.000000, -7602.000000)">
		<g id="icons" transform="translate(56.000000, 160.000000)">
			<path id="adobe_x5F_cloud-_x5B__x23_131_x5D_" class="st0" d="M456.2,8084.9c-8.3-7.8-39.1-37.4-53.5-51.5
				c-3.2-3.1-6.2-4.7-10.7-4.6c-131.9,3.2-180.9-110.6-149.7-192.8c23.9-63,90-101.3,155.2-89.5c54.7,9.9,68.4,31.7,154.1,119.6
				c23.7,24.4,62.8-12,37.9-37.7c-27.2-28-53.8-56.8-82.2-83.6c-55-52.1-119.8-67.6-191.5-45.4c-96.4,29.7-152.9,130.9-130.9,230.7
				c20.1,91,98.4,154.8,190,154.9C381.7,8085.1,449.4,8085.3,456.2,8084.9 M476,7654.9c0.5,0.7,0.6,0.9,0.8,1.1
				c16.5,8.2,32.2,17.9,47.1,28.9c0.9,0.7,3.2,0.4,4.4-0.3c81.6-52.5,186.6-34.4,246,43c62,80.8,43.2,182.7-8.2,240.2
				c-78.2,87.7-199.4,78.6-267.2,8.9c-36.7-37.6-73.6-75-110.3-112.5c-28.9-29.4-66.2,11.6-40.1,37.7
				c130.7,130.3,152.5,169.2,245.2,181.6c81.7,11,163-18.2,218.9-86.7c76.7-94.2,70.4-229.2-3.7-313.8
				C712.6,7573.4,565.7,7578.5,476,7654.9 M924,7828.4c0,160.7-96.6,292.9-281.5,313.6c-20.3,0-266,0.4-285.8-0.8
				c-247.2-15.8-327.1-364.6-93.1-483.6c42.6-21.7,92.8-30.9,147.9-23.4c1.5,0.2,3.7-0.4,4.8-1.6
				C580.6,7462.3,893.3,7534.5,924,7828.4"/>
		</g>
	</g>
</g>
</svg>
