<?xml version="1.0" encoding="utf-8"?>
<!-- Generator: Adobe Illustrator 28.3.0, SVG Export Plug-In . SVG Version: 6.00 Build 0)  -->
<svg version="1.1" id="Layer_1" xmlns="http://www.w3.org/2000/svg" xmlns:xlink="http://www.w3.org/1999/xlink" x="0px" y="0px"
	 viewBox="0 0 800 800" style="enable-background:new 0 0 800 800;" xml:space="preserve">
<style type="text/css">
	.st0{fill:#FFFFFF;}
</style>
<path class="st0" d="M667.1,425.6c-0.6,5.9-1,10.3-1.3,13.1c-0.3,2.2-2.1,4-4.4,4.1l0,0c-1.9,0-5.3,0.3-10.3,0.6
	c-4.9,0.6-10.6,0.9-16.4,0.9c-0.6,0-1.1,0-1.8,0h0.1c-7.2,0-14.7-1.2-22.8-1.2h-98.9c1.3,10.4,4.7,19.8,9.8,28l-0.2-0.3
	c5.5,8.3,13.3,14.8,22.4,18.6l0.3,0.1c11.2,4.9,24.4,7.8,38.2,7.8c0.6,0,1.2,0,1.9,0h-0.1c11.6-0.2,22.8-1.5,33.6-3.6l-1.2,0.2
	c10.4-1.4,19.7-3.9,28.6-7.5l-0.8,0.3c1.6-1.2,2.5-0.6,2.5,2.5V537c-0.1,1.4-0.3,2.6-0.7,3.8l0-0.1c-0.6,0.9-1.3,1.6-2.1,2.2l0,0
	c-9,4.1-19.5,7.3-30.4,9.2l-0.8,0.1c-12,2.4-25.7,3.8-39.8,3.8c-1.6,0-3.2,0-4.7-0.1h0.2c-1.2,0-2.6,0.1-4,0.1
	c-20.2,0-39.3-4-56.9-11.3l1,0.3c-15.7-6.9-28.8-17-39.2-29.5l-0.2-0.2c-9.5-11.5-16.9-25.2-21.3-40l-0.2-0.8
	c-4.1-13.6-6.5-29.3-6.5-45.5c0-17.7,2.9-34.8,8.1-50.8l-0.3,1.1c5.3-16.5,13.3-30.7,23.6-43l-0.2,0.2c10.2-12.3,22.8-22.3,37-29.4
	l0.6-0.3c13.9-6.2,30-9.8,47-9.8c1.8,0,3.6,0,5.3,0.1h-0.2c0.8,0,1.7,0,2.6,0c16.5,0,32.3,3.6,46.4,10l-0.7-0.3
	c13.1,5.8,24.1,14.2,32.6,24.8l0.1,0.1c8,10.1,14.3,22,18.5,34.8l0.2,0.8c3.8,11.3,5.9,24.2,5.9,37.7c0,0.1,0,0.2,0,0.3v0
	C667.7,413.1,667.4,419.7,667.1,425.6L667.1,425.6z M422.1,550.1H357c-0.1,0-0.3,0-0.4,0c-2.2,0-4-1.5-4.6-3.4v0l-25.6-74.9H210.3
	l-23.7,73.6c-0.5,2.5-2.7,4.4-5.4,4.4c-0.2,0-0.4,0-0.6,0h0h-58.6c-3.4,0-4.4-1.9-3.4-5.6l100.5-288c0.9-3.1,1.9-5.9,3.1-9.7
	c1.2-6.1,1.9-13,1.9-20.1c0,0,0-0.1,0-0.2l0,0c0-0.1,0-0.2,0-0.4c0-1.5,1.1-2.7,2.5-3h0h80.8c2.2,0,3.7,0.9,4,2.5l113.9,319.8
	C426.3,548.5,425.4,550.1,422.1,550.1L422.1,550.1z M641.8,35H158.2c0,0-0.1,0-0.1,0C85,35,25.7,94.3,25.7,167.4c0,0.1,0,0.1,0,0.1
	l0,0v464.9c0,0,0,0.1,0,0.1C25.7,705.7,85,765,158.1,765c0.1,0,0.1,0,0.1,0h483.6c0,0,0.1,0,0.1,0c73.2,0,132.5-59.3,132.5-132.5
	c0-0.1,0-0.1,0-0.1l0,0V167.6c0,0,0-0.1,0-0.1C774.4,94.3,715.1,35,641.9,35C641.9,35,641.8,35,641.8,35L641.8,35L641.8,35z
	 M559.8,351.3c-0.7,0-1.6-0.1-2.5-0.1c-16.9,0-31.6,9.6-38.9,23.6l-0.1,0.2c-3.5,6.5-5.9,14.1-6.8,22.1l0,0.3h65.8
	c8.1,0,14.1,0,17.8-0.3c2.7-0.2,5.1-1.1,7.2-2.5l0,0v-3.1v0c0-4.1-0.7-8.1-2-11.8l0.1,0.2c-5.5-16.8-20.9-28.7-39.2-28.7
	C560.6,351.3,560.1,351.3,559.8,351.3L559.8,351.3L559.8,351.3z M292.1,360.4c-3.1-9.7-5.9-19-9.1-28.7c-3.1-9.7-5.9-18.7-8.4-27.8
	c-2.5-8.7-4.7-16.8-6.9-24.3h-0.6c-3.4,16.3-7,29.8-11.4,43l0.8-2.7c-4.7,15-9.3,30.6-14.3,46.2c-4.1,15.9-9.1,30.6-13.7,43.7h79.3
	c-1.9-6.5-4.4-14.4-7.2-22.5C297.7,378.8,294.9,369.7,292.1,360.4L292.1,360.4z"/>
</svg>
