<?xml version="1.0" encoding="utf-8"?>
<!-- Generator: Adobe Illustrator 28.3.0, SVG Export Plug-In . SVG Version: 6.00 Build 0)  -->
<svg version="1.1" id="Layer_1" xmlns="http://www.w3.org/2000/svg" xmlns:xlink="http://www.w3.org/1999/xlink" x="0px" y="0px"
	 viewBox="0 0 800 800" style="enable-background:new 0 0 800 800;" xml:space="preserve">
<style type="text/css">
	.st0{fill:#FFFFFF;}
</style>
<path class="st0" d="M666.7,0H133.3C59.8,0.2,0.3,59.8,0,133.3v533.3C0,740,60,800,133.3,800h533.3C740,800,800,740,800,666.7V133.3
	C800,60,740,0,666.7,0z M593.8,561.9c-6.7,16-17.2,30.2-30.7,41.1c-14.1,11.3-31.8,20.7-53.7,27.4c-21.8,6.8-47.6,10.1-77.7,10.1
	H217.3V173.8H444c41.9,0,75.5,9.4,100.7,28.6c25.4,19.3,37.9,48.2,37.9,87c0,23.6-5.7,43.6-17.2,60.3c-11.5,16.6-28,29.5-49.3,38.5
	v1.6c28.5,6,50.5,19.5,65,40.5c14.4,21,22,47.5,22,79.5c0,18-3.5,35-10,50.9l0.8,0.9L593.8,561.9z M501.2,446.9
	c-13.5-12.5-32.8-18.6-57.5-18.6H299.5v145.6H444c24.6,0,44-6.4,57.7-19.3s20.6-31.2,20.6-54.7c-0.3-23.1-6.9-40.9-20.6-53H501
	L501.2,446.9z M481.2,352.7c13.2-11.2,19.6-27.2,19.6-48.2c0-23.5-5.9-40.1-17.7-49.6c-11.7-9.5-28.6-14.4-50.9-14.4H299v128.8
	h133.3c19.4,0,36.1-5.7,48.8-16.5L481.2,352.7z"/>
</svg>
