<?xml version="1.0" encoding="utf-8"?>
<!-- Generator: Adobe Illustrator 28.3.0, SVG Export Plug-In . SVG Version: 6.00 Build 0)  -->
<svg version="1.1" id="meteor-icon-kit__solid-figma"
	 xmlns="http://www.w3.org/2000/svg" xmlns:xlink="http://www.w3.org/1999/xlink" x="0px" y="0px" viewBox="0 0 800 800"
	 style="enable-background:new 0 0 800 800;" xml:space="preserve">
<style type="text/css">
	.st0{fill:#FCFCFC;}
</style>
<path class="st0" d="M382.6,0H260.9c-67.2,0-121.7,54.5-121.7,121.7s54.5,121.7,121.7,121.7h121.7V0z"/>
<path class="st0" d="M417.4,0h121.7c67.2,0,121.7,54.5,121.7,121.7s-54.5,121.7-121.7,121.7H417.4V0z"/>
<path class="st0" d="M382.6,278.3H260.9c-67.2,0-121.7,54.5-121.7,121.7s54.5,121.7,121.7,121.7h121.7V278.3z"/>
<path class="st0" d="M382.6,556.5H260.9c-67.2,0-121.7,54.5-121.7,121.7S193.6,800,260.9,800s121.7-54.5,121.7-121.7V556.5z"/>
<path class="st0" d="M539.1,521.7c67.2,0,121.7-54.5,121.7-121.7s-54.5-121.7-121.7-121.7S417.4,332.8,417.4,400
	S471.9,521.7,539.1,521.7z"/>
</svg>
