<?xml version="1.0" encoding="utf-8"?>
<!-- Generator: Adobe Illustrator 28.3.0, SVG Export Plug-In . SVG Version: 6.00 Build 0)  -->
<svg version="1.1" id="Layer_1" xmlns="http://www.w3.org/2000/svg" xmlns:xlink="http://www.w3.org/1999/xlink" x="0px" y="0px"
	 viewBox="0 0 800 800" style="enable-background:new 0 0 800 800;" xml:space="preserve">
<style type="text/css">
	.st0{fill:#FFFFFF;}
</style>
<g>
	<path class="st0" d="M750,280L520,50c-63.3-62.4-164-65.4-231-7l94,94c32.5-11.6,68.3,5.3,79.9,37.9c2.5,7.1,3.8,14.6,3.6,22.1v3
		c-0.3,6.5-1.7,12.9-4,19L585,339c5.9-2.3,12.2-3.7,18.5-4c35.9,0,65,29.1,65,65c0,35.9-29.1,65-65,65s-65-29.1-65-65v0l0,0
		c0.3-6.3,1.7-12.6,4-18.5L430,269v261.5c22.2,10.6,36.4,32.9,36.5,57.5c0,35.9-29.1,65-65,65s-65-29.1-65-65
		c0.2-23.2,13-44.5,33.5-55.5v-279c-19.9-10.6-32.6-31-33.5-53.5c0.3-6.3,1.7-12.6,4-18.5l-95-95L50,280
		c-66.1,65.9-66.4,172.9-0.5,239c0.2,0.2,0.3,0.3,0.5,0.5l0,0L280,750c65.9,66.1,172.9,66.4,239,0.5c0.2-0.2,0.3-0.3,0.5-0.5l0,0
		L750,520c66.1-65.9,66.4-172.9,0.5-239c-0.2-0.2-0.3-0.3-0.5-0.5V280z"/>
</g>
</svg>
