<?xml version="1.0" encoding="utf-8"?>
<!-- Generator: Adobe Illustrator 28.3.0, SVG Export Plug-In . SVG Version: 6.00 Build 0)  -->
<svg version="1.1" id="Layer_1" xmlns="http://www.w3.org/2000/svg" xmlns:xlink="http://www.w3.org/1999/xlink" x="0px" y="0px"
	 viewBox="0 0 800 800" style="enable-background:new 0 0 800 800;" xml:space="preserve">
<style type="text/css">
	.st0{fill-rule:evenodd;clip-rule:evenodd;fill:#FFFFFF;}
</style>
<g id="Icons">
	<g id="Color-" transform="translate(-700.000000, -560.000000)">
		<path id="Github" class="st0" d="M1100,568.3c-220.9,0-400,179.8-400,401.6c0,177.4,114.6,327.9,273.6,381
			c20,3.7,27.3-8.7,27.3-19.4c0-9.5-0.3-34.8-0.6-68.3c-111.3,24.3-134.7-53.8-134.7-53.8c-18.2-46.4-44.4-58.7-44.4-58.7
			c-36.3-24.9,2.7-24.4,2.7-24.4c40.1,2.8,61.2,41.4,61.2,41.4c35.7,61.4,93.6,43.6,116.4,33.4c3.6-26,14-43.6,25.4-53.7
			c-88.8-10.1-182.2-44.6-182.2-198.5c0-43.8,15.6-79.7,41.2-107.8c-4.1-10.2-17.8-51,3.9-106.3c0,0,33.6-10.8,110,41.2
			c31.9-8.9,66.1-13.4,100.2-13.5c34,0.2,68.2,4.6,100.1,13.5c76.3-52,109.9-41.2,109.9-41.2c21.8,55.3,8.1,96.1,4,106.3
			c25.7,28.1,41.1,63.9,41.1,107.8c0,154.3-93.5,188.2-182.6,198.2c14.4,12.4,27.2,36.9,27.2,74.4c0,53.7-0.5,97-0.5,110.2
			c0,10.7,7.2,23.2,27.5,19.3c158.8-53.2,273.3-203.6,273.3-381C1500,748.1,1320.9,568.3,1100,568.3"/>
	</g>
</g>
</svg>
