<?xml version="1.0" encoding="utf-8"?>
<!-- Generator: Adobe Illustrator 28.3.0, SVG Export Plug-In . SVG Version: 6.00 Build 0)  -->
<svg version="1.1" id="Layer_1" xmlns="http://www.w3.org/2000/svg" xmlns:xlink="http://www.w3.org/1999/xlink" x="0px" y="0px"
	 viewBox="0 0 800 800" style="enable-background:new 0 0 800 800;" xml:space="preserve">
<style type="text/css">
	.st0{fill:#FFFFFF;}
</style>
<path class="st0" d="M584,264.1c-6.7,6.8-16,11-26.2,11c-0.8,0-1.5,0-2.3-0.1h0.1c-0.2,0-0.5,0-0.8,0c-10.5,0-20-4.2-27-11l0,0
	c-6.6-7.2-10.7-16.8-10.7-27.4c0-0.5,0-1,0-1.4v0.1c0-0.4,0-0.9,0-1.3c0-10.4,4.3-19.8,11.2-26.5l0,0c7.2-6.8,16.9-10.9,27.6-10.9
	c0.1,0,0.2,0,0.3,0h0c0.6,0,1.3,0,1.9,0c10.3,0,19.7,4.2,26.5,11l0,0c6.4,7,10.3,16.4,10.3,26.6c0,0.4,0,0.9,0,1.2v-0.1
	c0,0.4,0,0.9,0,1.4C595,247.4,590.8,257,584,264.1L584,264.1L584,264.1z M590.6,546.2c0,3.4-1.2,5-4,5h-61.3c-0.1,0-0.2,0-0.3,0
	c-2.4,0-4.4-2-4.4-4.4c0-0.2,0-0.5,0.1-0.7v0V305.7c0-3.1,1.3-4.4,4.1-4.4h61.9c2.8,0,4,1.6,4,4.4L590.6,546.2z M484.4,550.9H419
	c-0.1,0-0.3,0-0.4,0c-2.2,0-4-1.5-4.5-3.4v0l-25.6-74.4H272.2l-23.7,73.4c-0.5,2.5-2.7,4.4-5.4,4.4c-0.2,0-0.4,0-0.6,0h0h-58.7
	c-3.4,0-4.4-1.9-3.4-5.6L281,255.7c0.9-3.1,1.9-6.6,3.1-10.3c1.2-6,1.9-13,1.9-20.1c0,0,0-0.1,0-0.2l0,0c0-0.1,0-0.3,0-0.4
	c0-1.5,1.1-2.8,2.5-3.1h0h80.9c2.5,0,3.8,0.9,4,2.5l114,321.8C488.5,549.3,487.5,550.9,484.4,550.9L484.4,550.9z M642.1,34.5H157.9
	c0,0-0.1,0-0.1,0c-73.3,0-132.7,59.4-132.7,132.7c0,0.1,0,0.1,0,0.1l0,0v465.5c0,0,0,0.1,0,0.1c0,73.3,59.4,132.7,132.7,132.7
	c0.1,0,0.1,0,0.1,0h484.2c0,0,0.1,0,0.1,0c73.3,0,132.7-59.4,132.7-132.7c0-0.1,0-0.1,0-0.1l0,0V167.3c0,0,0-0.1,0-0.1
	c0-73.3-59.4-132.7-132.7-132.7C642.2,34.5,642.2,34.5,642.1,34.5L642.1,34.5L642.1,34.5z M354.1,360.3c-3.1-9.7-5.9-19.1-9-28.8
	c-3.1-9.7-5.9-18.8-8.4-27.8c-2.5-8.8-4.7-16.9-6.9-24.4h-0.6c-3.4,16.3-7,29.8-11.4,43l0.8-2.7c-4.7,15-9.4,30.6-14.4,46.2
	c-4.4,15.9-9,30.6-13.8,43.8h79.3c-1.9-6.6-4.4-14.4-7.2-22.5C359.7,378.8,356.9,369.7,354.1,360.3L354.1,360.3z"/>
</svg>
