<?xml version="1.0" encoding="utf-8"?>
<!-- Generator: Adobe Illustrator 28.3.0, SVG Export Plug-In . SVG Version: 6.00 Build 0)  -->
<svg version="1.1" id="Layer_1" xmlns="http://www.w3.org/2000/svg" xmlns:xlink="http://www.w3.org/1999/xlink" x="0px" y="0px"
	 viewBox="0 0 800 800" style="enable-background:new 0 0 800 800;" xml:space="preserve">
<style type="text/css">
	.st0{fill:#FFFFFF;}
</style>
<path class="st0" d="M593.7,750.1c-3,1.6-2.7,2.1,0.1,0.6c0.9-0.4,1.7-0.9,2.4-1.5C596.2,748.7,596.2,748.7,593.7,750.1L593.7,750.1
	z M599.7,746.9c-1.4,1.2-1.4,1.2,0.3,0.4c0.9-0.5,1.7-1,1.7-1.2C601.7,745.4,601.3,745.6,599.7,746.9z M603.6,744.5
	c-1.4,1.2-1.4,1.2,0.3,0.4c0.9-0.5,1.7-1.1,1.7-1.2C605.6,743.1,605.2,743.2,603.6,744.5z M607.6,742.2c-1.4,1.2-1.4,1.2,0.2,0.4
	c0.9-0.5,1.7-1,1.7-1.2C609.5,740.8,609.1,740.9,607.6,742.2L607.6,742.2z M612.9,738.7c-2.7,1.8-3.7,3-1.2,1.7c1.7-1,4.5-3.3,4-3.3
	C614.7,737.5,613.8,738.2,612.9,738.7L612.9,738.7z M373.8,0.3c-1.8,0.1-7.3,0.6-12.1,1C248,11.6,141.6,72.8,74.2,167.1
	C36.9,218.8,12.7,278.8,3.6,341.8c-3.2,22-3.6,28.5-3.6,58.3c0,29.8,0.4,36.2,3.6,58.2c21.8,150.3,128.7,276.4,273.6,323.2
	c26.1,8.3,53.4,14.1,84.5,17.6c12.1,1.3,64.4,1.3,76.5,0c53.8-6,99.2-19.3,144.2-42.2c6.9-3.5,8.2-4.4,7.3-5.2
	c-22-29-43.6-58.1-65.2-87.4L460.6,578l-80.1-118.6c-26.7-39.7-53.5-79.3-80.7-118.6c-0.3,0-0.6,52.7-0.8,117
	c-0.3,112.6-0.3,117.2-1.7,119.8c-1.4,3.1-3.8,5.7-6.9,7.2c-2.5,1.2-4.7,1.4-16.5,1.4h-13.5l-3.5-2.2c-2.2-1.4-4-3.4-5.2-5.7
	l-1.7-3.5L250,418l0.3-156.8l2.5-3.1c1.6-1.9,3.5-3.5,5.7-4.7c3.3-1.6,4.6-1.8,18.1-1.8c15.9,0,18.5,0.6,22.7,5.2
	c32.4,48.3,64.7,96.7,96.5,145.3c52,78.8,122.9,186.3,157.8,239.1l63.4,96l3.1-2.1c30.5-20.3,58.2-44.5,82.1-72.1
	c50.4-57.7,83.1-128.7,94.2-204.4c3.2-22,3.6-28.5,3.6-58.3c0-29.8-0.4-36.2-3.6-58.2C774.6,191.7,667.7,65.6,522.8,18.8
	c-27.1-8.6-55-14.4-83.2-17.4C432.1,0.6,380.4-0.3,373.8,0.3L373.8,0.3z M537.5,242.2c3.8,1.8,6.6,5.2,7.9,9.1
	c0.7,2.1,0.8,45.6,0.7,143.5l-0.3,140.6l-24.7-38l-24.9-38V357.3c0-66.2,0.3-103.3,0.6-105.1c1.2-4.2,4-7.7,7.8-9.9
	c3.1-1.6,4.3-1.7,16.7-1.7C532.9,240.6,534.9,240.7,537.5,242.2L537.5,242.2z"/>
</svg>
