<?xml version="1.0" encoding="utf-8"?>
<!-- Generator: Adobe Illustrator 28.3.0, SVG Export Plug-In . SVG Version: 6.00 Build 0)  -->
<svg version="1.1" id="Layer_1" xmlns="http://www.w3.org/2000/svg" xmlns:xlink="http://www.w3.org/1999/xlink" x="0px" y="0px"
	 viewBox="0 0 800 800" style="enable-background:new 0 0 800 800;" xml:space="preserve">
<style type="text/css">
	.st0{fill:none;}
	.st1{fill:#FFFFFF;}
</style>
<g id="Layer_2_00000126285500049674729300000009237736337594119866_">
	<g id="invisible_box">
		<rect class="st0" width="800" height="800"/>
	</g>
	<g id="Q3_icons">
		<g>
			<path class="st1" d="M705,196.7L428.3,40c-17.9-8.4-38.7-8.4-56.7,0L95,196.7c-17.3,10-28.1,28.4-28.3,48.3v310
				c0.3,20,11,38.3,28.3,48.3l73.3,41.7c19.2,11.3,41.1,17.1,63.3,16.7c51.7,0,81.7-31.7,81.7-85v-305c0-4.6-3.7-8.3-8.3-8.3h-35
				c-4.6,0-8.3,3.7-8.3,8.3v305c0,25-25,48.3-65,28.3L120,561.7c-2.1-1.6-3.3-4-3.3-6.7V245c0.1-3.1,1.3-6,3.3-8.3l275-155h10
				l275,155c2,2.3,3.2,5.3,3.3,8.3v310c0,2.6-1.2,5.1-3.3,6.7l-275,155c-3.1,1.8-6.9,1.8-10,0l-70-40c-1.9-1.7-4.8-1.7-6.7,0
				L276.7,695c-5,1.7-11.7,3.3,1.7,11.7l93.3,51.7c17.2,11.3,39.5,11.3,56.7,0l276.7-155c17.3-10,28.1-28.4,28.3-48.3V245
				C733.1,225,722.3,206.7,705,196.7z"/>
			<path class="st1" d="M485,505c-73.3,0-88.3-16.7-95-51.7c0-3.7-3-6.7-6.7-6.7h-36.7c-3.7,0-6.7,3-6.7,6.7c0,45,25,100,145,100
				c86.7,0,136.7-33.3,136.7-91.7s-40-75-125-85S403.3,360,403.3,340c0-20,6.7-36.7,70-36.7s78.3,11.7,86.7,48.3
				c0.8,3.9,4.3,6.7,8.3,6.7h35l6.7-3.3c1.2-1.4,1.8-3.2,1.7-5c-5-65-50-95-138.3-95s-125,33.3-125,86.7S395,416.7,470,425
				c75,8.3,98.3,20,98.3,38.3C568.3,481.7,543.3,505,485,505z"/>
		</g>
	</g>
</g>
</svg>
