<?xml version="1.0" encoding="utf-8"?>
<!-- Generator: Adobe Illustrator 28.3.0, SVG Export Plug-In . SVG Version: 6.00 Build 0)  -->
<svg version="1.1" id="Layer_1" xmlns="http://www.w3.org/2000/svg" xmlns:xlink="http://www.w3.org/1999/xlink" x="0px" y="0px"
	 viewBox="0 0 800 800" style="enable-background:new 0 0 800 800;" xml:space="preserve">
<style type="text/css">
	.st0{fill:#FFFFFF;}
</style>
<path class="st0" d="M328.3,280.7c-12.3-5-25.7-7-39.3-6.7c-8.7,0-16.3,0-22.7,0.3c-6.7-0.3-11.3,0-13.7,0.3v112
	c4.7,0.3,9,0.7,13,0.7h17.7c13,0,26-2,38.3-6c10.7-3,20-9.3,27.3-17.7c7-8.3,10.3-19.7,10.3-34.3c0.3-10.3-2.3-20.7-7.7-29.7
	C346.1,291,337.9,284.4,328.3,280.7L328.3,280.7z M658.3,10H141.7C63.3,10,0,73.3,0,151.7v496.6C0,726.6,63.3,790,141.7,790h516.7
	c78.3,0,141.7-63.3,141.7-141.7V151.7C800,73.3,736.7,10,658.3,10z M412,398.3C398.7,417,380,431,358.3,439
	c-22.7,8.3-47.7,11.3-75,11.3c-8,0-13.3,0-16.7-0.3c-3.3-0.3-8-0.3-14.3-0.3v107c0.3,2.3-1.3,4.4-3.7,4.7H184c-2.7,0-4-1.4-4-4.4
	V214c0-2.3,1-3.7,3.3-3.7c5.7,0,11,0,18.7-0.3c8-0.3,16.3-0.3,25.3-0.7s18.7-0.3,29-0.7c10.3-0.3,20.3-0.3,30.3-0.3
	c27.3,0,50,3.3,68.7,10.3c16.7,5.7,32,15,44.7,27.3c10.7,10.7,19,23.7,24.3,38c5,14,7.6,28.3,7.6,43.3
	C432,356,425.3,379.7,412,398.3L412,398.3z M648.3,528c-9.3,13.3-22.4,23.6-37.3,29.7c-16.3,7-36.3,10.6-60.4,10.6
	c-15.3,0-30.3-1.3-45.3-4.3c-11.7-2-23.3-5.7-34-10.7c-2.3-1.3-4-3.6-3.7-6.3v-58c0-1,0.4-2.3,1.4-3c1-0.7,2-0.3,3,0.3
	c13,7.7,26.7,13,41.3,16.3c12.6,3.3,26,5,39.3,5c12.7,0,21.7-1.7,27.7-4.7c5.3-2.3,9-8,9-14c0-4.7-2.7-9-8-13.3
	c-5.3-4.3-16.3-9.3-32.6-15.7c-17-6-32.6-14-47.3-24c-10.4-7.5-19.1-17.1-25.4-28.3c-5.3-10.5-7.9-22.2-7.6-34
	c0-14.3,4-28,11.4-40.3c8.3-13.3,20.6-24,35-30.7c15.6-8,35.3-11.6,59-11.6c13.7,0,27.7,1,41.3,3c10,1.3,19.7,4,28.7,7.7
	c1.3,0.3,2.7,1.7,3.3,3c0.3,1.3,0.7,2.7,0.7,4V363c0,1.3-0.7,2.7-1.7,3.3c-3,0.7-4.7,0.7-6,0c-10-5.3-20.7-9-32-11.3
	c-12.3-2.7-24.7-4.3-37.3-4.3c-6.7-0.3-13.7,0.7-20,2.3c-4.3,1-8,3.3-10.3,6.7c-1.7,2.7-2.7,6-2.7,9c0,3,1.3,6,3.4,8.7
	c3,3.7,7,6.7,11.3,9c7.6,4,15.7,7.7,23.6,11c18,6,35.4,14.3,51.4,24.3c11,7,20,16.3,26.3,27.7c5.3,10.6,8,22.3,7.7,34.3
	C661.7,499.3,657,515,648.3,528L648.3,528z"/>
</svg>
