<?xml version="1.0" encoding="utf-8"?>
<!-- Generator: Adobe Illustrator 28.3.0, SVG Export Plug-In . SVG Version: 6.00 Build 0)  -->
<svg version="1.1" id="Layer_1" xmlns="http://www.w3.org/2000/svg" xmlns:xlink="http://www.w3.org/1999/xlink" x="0px" y="0px"
	 viewBox="0 0 800 800" style="enable-background:new 0 0 800 800;" xml:space="preserve">
<style type="text/css">
	.st0{fill:#FFFFFF;}
</style>
<path class="st0" d="M580.1,344h-29.5l-16.1,82.7h26.2c1.4,0.1,3,0.2,4.7,0.2c12.7,0,24.5-3.7,34.4-10.1l-0.2,0.2
	c9.3-8.2,15.6-19.7,17.2-32.5l0-0.2c1.2-3.5,1.9-7.4,1.9-11.5c0-7.3-2.2-14.1-5.9-19.7l0.1,0.1c-7.4-5.9-16.9-9.4-27.2-9.4
	c-1.9,0-3.8,0.1-5.7,0.4L580.1,344L580.1,344z M661.2,387.1c-1.9,10-5.2,18.8-9.8,26.9l0.2-0.4c-4.9,8.4-10.7,15.7-17.5,21.9
	l-0.1,0.1c-7.9,7.5-17.5,13.5-28.1,17l-0.5,0.1c-11,3.3-23.7,5.2-36.8,5.2c-1.2,0-2.4,0-3.5-0.1h0.2h-36.9l-10.2,52.5h-43
	l38.4-197.6h82.7c1.8-0.2,4-0.3,6.1-0.3c18.8,0,35.9,7.6,48.3,19.9l0,0c8,10.2,12.8,23.3,12.8,37.5c0,6.1-0.9,12.1-2.6,17.6
	L661.2,387.1L661.2,387.1z M423.9,457.9l17-87.5c0.9-2.4,1.4-5.1,1.4-7.9c0-4.6-1.3-8.9-3.6-12.5l0.1,0.1c-4.9-3.6-11-5.7-17.6-5.7
	c-1.4,0-2.7,0.1-4.1,0.3l0.2,0h-34.1l-22,113.2h-42.7l38.4-197.7h42.7l-10.2,52.6h38c2.3-0.2,5-0.4,7.7-0.4
	c15.6,0,30.1,4.8,42.1,13.1l-0.2-0.1c6.4,7.3,10.3,16.9,10.3,27.4c0,4.7-0.8,9.2-2.2,13.4l0.1-0.3l-17.9,92L423.9,457.9z
	 M298.1,435.6c-7.9,7.6-17.5,13.5-28.1,17l-0.5,0.1c-11,3.3-23.7,5.2-36.8,5.2c-1.2,0-2.4,0-3.6-0.1h0.2h-36.9l-10.2,52.5h-43.1
	l38.4-197.6h82.8c1.8-0.2,4-0.3,6.1-0.3c18.9,0,36,7.6,48.4,19.9l0,0c8,10.2,12.8,23.3,12.8,37.5c0,6.1-0.9,12.1-2.6,17.7l0.1-0.4
	C321.5,406.5,311.9,423.2,298.1,435.6L298.1,435.6L298.1,435.6z M400,202.8c-207,0-374.9,88.3-374.9,197.2S192.9,597.2,400,597.2
	S774.9,508.9,774.9,400S607,202.8,400,202.8L400,202.8z M244.1,344h-29.5l-16.1,82.7h26.2c1.4,0.1,3,0.2,4.7,0.2
	c12.7,0,24.5-3.7,34.4-10.1l-0.3,0.2c9.3-8.2,15.6-19.7,17.2-32.5l0-0.2c1.2-3.5,1.9-7.4,1.9-11.6c0-7.2-2.1-14-5.9-19.6l0.1,0.1
	c-7.4-5.9-16.9-9.4-27.2-9.4c-1.9,0-3.9,0.1-5.7,0.4L244.1,344L244.1,344z"/>
</svg>
