<?xml version="1.0" encoding="utf-8"?>
<!-- Generator: Adobe Illustrator 28.3.0, SVG Export Plug-In . SVG Version: 6.00 Build 0)  -->
<svg version="1.1" id="Layer_1" xmlns="http://www.w3.org/2000/svg" xmlns:xlink="http://www.w3.org/1999/xlink" x="0px" y="0px"
	 viewBox="0 0 800 800" style="enable-background:new 0 0 800 800;" xml:space="preserve">
<style type="text/css">
	.st0{fill:#FFFFFF;}
</style>
<path class="st0" d="M633.7,300V361c0,2.5-1.5,3.4-5,3.4c-1.5-0.1-3.2-0.1-4.9-0.1c-19.9,0-38.9,4.3-55.9,12l0.8-0.4
	c-6.2,2.9-11.5,6.8-15.9,11.5l0,0.1v159.3c0,3.1-1.2,4.4-4.1,4.4h-61.5c-0.2,0-0.4,0-0.6,0c-2.2,0-4.1-1.6-4.3-3.8v0V373.1
	l-0.3-23.4l-0.6-24.4c0-7.2-0.6-14.1-1.2-21.3c0-0.1,0-0.3,0-0.4c0-1.4,0.9-2.6,2.2-3h0h55.6c0,0,0,0,0,0c3,0,5.6,2.1,6.2,4.9v0.1
	c2.6,8.2,4.1,17.7,4.1,27.4c0,0.4,0,0.9,0,1.4v-0.1c9.4-10.8,20.6-19.8,33.1-26.6l0.6-0.3c13.5-7.7,29.8-12.2,47-12.2
	c0.2,0,0.3,0,0.5,0h0c0.2,0,0.3,0,0.5,0c2,0,3.6,1.5,3.9,3.4v0L633.7,300z M420.6,398.4c-12.5,17.3-29.6,30.5-49.6,37.9l-0.8,0.2
	c-19.4,6.8-41.7,10.7-64.9,10.7c-1.9,0-3.8,0-5.6-0.1h0.3l-15.6-0.3l-13.4-0.3v100.3c0,0.2,0.1,0.4,0.1,0.6c0,2-1.5,3.6-3.5,3.8l0,0
	H207c-2.5,0-3.8-1.2-3.8-4.1V225.7c0-2.2,0.9-3.4,3.1-3.4l17.5-0.3l23.8-0.6l27.2-0.6l28.4-0.3c1.6,0,3.4-0.1,5.3-0.1
	c21.1,0,41.4,3.6,60.4,10.1l-1.3-0.4c16.4,5.6,30.3,14.4,41.9,25.7l0,0c9.8,9.8,17.5,21.7,22.6,34.9l0.2,0.7
	c4.5,12.1,7.1,26,7.2,40.6l0,0c0.1,1.3,0.1,2.9,0.1,4.5c0,23.1-7,44.6-19.1,62.5L420.6,398.4L420.6,398.4z M642.1,34.5H157.9
	c-73.3,0-132.8,59.5-132.8,132.8l0,0v465.5c0,0,0,0.1,0,0.1c0,73.3,59.4,132.7,132.7,132.7c0.1,0,0.1,0,0.1,0h484.2c0,0,0.1,0,0.1,0
	c73.3,0,132.7-59.4,132.7-132.7c0-0.1,0-0.1,0-0.1l0,0V167.2c0,0,0-0.1,0-0.1c0-73.3-59.4-132.7-132.7-132.7
	C642.2,34.5,642.2,34.5,642.1,34.5L642.1,34.5L642.1,34.5z M342.2,288.1c-9.9-4-21.4-6.3-33.4-6.3c-1.2,0-2.4,0-3.6,0.1h0.2
	c-11.4-0.2-22.7,0-34,0.6v105l12.2,0.6H300c0,0,0.1,0,0.1,0c12.8,0,25.1-2.1,36.6-5.9l-0.8,0.2c10.3-3.1,19-8.9,25.5-16.5l0.1-0.1
	c6.1-8,9.8-18.1,9.8-29.1c0-1.1,0-2.1-0.1-3.2v0.1c0.1-1,0.1-2.1,0.1-3.3c0-19.2-12-35.6-28.9-42.2L342.2,288.1L342.2,288.1z"/>
</svg>
