<?xml version="1.0" encoding="utf-8"?>
<!-- Generator: Adobe Illustrator 28.3.0, SVG Export Plug-In . SVG Version: 6.00 Build 0)  -->
<svg version="1.1" id="Layer_1" xmlns="http://www.w3.org/2000/svg" xmlns:xlink="http://www.w3.org/1999/xlink" x="0px" y="0px"
	 viewBox="0 0 800 800" style="enable-background:new 0 0 800 800;" xml:space="preserve">
<style type="text/css">
	.st0{fill:#FFFFFF;}
</style>
<path class="st0" d="M679.4,573c6.4-3.8,12.4-8.1,18-12.9c0.7-0.6,1.8-1.2,2.5-1.8V613c0,19.7-28.5,40.4-77.6,56.8
	c-5.6,1.9-11.6,3.6-17.7,5.4c-6.4,1.8-13.1,3.6-20.1,5.2C523.9,694,462,700.6,399.9,700c-62.1,0.6-124-6-184.5-19.6
	c-7.1-1.7-13.7-3.4-20.1-5.2c-6.2-1.7-12.1-3.5-17.7-5.4c-49-16.3-77.5-37-77.5-56.8v-54.7c0.6,0.6,1.7,1.1,2.4,1.8
	c5.7,4.8,11.7,9.2,18.1,13c0.6,0.3,1,0.7,1.6,1c8.1,4.6,16.5,8.6,25.1,12.1l0.5,0.3c1.8,0.7,3.7,1.5,5.5,2.3c2.9,1.1,6,2,9,3
	c5.1,1.8,10.2,3.7,15.4,5.3c1.8,0.6,3.5,1.3,5.5,1.9c0.9,0.3,2.1,0.6,3.2,0.8c10,2.9,20.6,5.5,31.6,7.9c2.4,0.5,4.6,1,7.1,1.6
	c11.7,2.4,23.9,4.6,36.4,6.5c2.4,0.4,4.9,0.7,7.3,1c11.5,1.7,23.2,3.1,35.3,4.3c2,0.2,3.9,0.4,5.7,0.7c13.2,1.1,26.6,2.1,39.9,2.9
	c3,0,6,0.2,9,0.4c13.7,0.6,27.5,0.9,41.1,0.9c13.7,0,27.4-0.4,41.2-0.9c3-0.2,6-0.3,9-0.4c13.4-0.7,26.8-1.7,40.1-2.9
	c1.9-0.3,3.7-0.5,5.6-0.7c12-1.1,23.8-2.6,35.4-4.3c2.4-0.3,4.9-0.6,7.3-1c12.5-1.9,24.6-4,36.3-6.5c2.5-0.6,4.8-1.1,7.2-1.6
	c10.9-2.4,21.4-5,31.5-7.8c1.1-0.4,2.4-0.6,3.4-1c1.9-0.5,3.5-1.2,5.4-1.8c5.4-1.7,10.3-3.5,15.5-5.3c2.8-1,6-1.9,8.8-3
	c1.9-0.7,3.8-1.4,5.6-2.3l0.6-0.3c8.6-3.5,16.9-7.5,25-12.1C678.2,573.8,678.8,573.4,679.4,573 M679.4,430.8
	c-0.6,0.3-1.1,0.8-1.8,1.1c-8.1,4.5-16.4,8.6-25,12.1l-0.6,0.3c-1.8,0.8-3.7,1.5-5.6,2.3c-2.8,1-6,2-8.8,3
	c-5.1,1.8-10.1,3.7-15.5,5.3c-1.9,0.6-3.5,1.3-5.4,1.8c-1.1,0.3-2.3,0.6-3.4,1c-10.1,2.8-20.6,5.5-31.5,7.8
	c-2.4,0.6-4.7,1.1-7.2,1.6c-11.7,2.5-23.8,4.6-36.3,6.5c-2.4,0.4-4.9,0.7-7.3,1c-11.6,1.7-23.4,3.1-35.4,4.3l-5.6,0.6
	c-13.2,1.2-26.7,2.2-40.1,2.9l-9,0.4c-13.8,0.6-27.5,1-41.2,1c-13.6,0-27.4-0.4-41.1-1c-3-0.2-6-0.3-9-0.4
	c-13.3-0.7-26.7-1.7-39.9-2.9l-5.7-0.6c-12-1.2-23.7-2.6-35.3-4.3c-2.4-0.3-4.9-0.6-7.3-1c-12.5-1.9-24.7-4.1-36.4-6.5
	c-2.5-0.5-4.7-1-7.1-1.6c-11-2.3-21.6-5-31.6-7.9c-1.1-0.3-2.2-0.6-3.2-0.9c-2-0.6-3.6-1.3-5.5-1.9c-5.3-1.7-10.4-3.5-15.4-5.3
	c-2.9-1-6.1-2-9-3c-1.8-0.7-3.7-1.5-5.5-2.2l-0.5-0.3c-8.6-3.5-17-7.5-25.1-12.1c-0.6-0.3-1-0.7-1.6-1c-6.4-3.8-12.5-8.1-18.1-13
	c-0.8-0.6-1.8-1.1-2.4-1.8v54.7c0,19.7,28.5,40.4,77.5,56.8c5.6,1.9,11.5,3.7,17.7,5.4c6.4,1.8,13.1,3.6,20.1,5.2
	c60.6,13.6,122.5,20.2,184.5,19.6c62.1,0.6,124.1-6,184.7-19.6c7-1.7,13.7-3.4,20.1-5.2c6.1-1.7,12.1-3.5,17.7-5.4
	c49-16.4,77.6-37.1,77.6-56.8v-54.7c-0.8,0.6-1.8,1.2-2.5,1.8C691.8,422.7,685.7,427,679.4,430.8 M679.4,288.5
	c-0.6,0.3-1.1,0.8-1.8,1.1c-8.1,4.5-16.4,8.6-25,12.1L652,302c-1.8,0.8-3.7,1.5-5.6,2.3c-2.8,1-6,2-8.8,3
	c-5.1,1.8-10.1,3.7-15.5,5.3c-1.9,0.6-3.5,1.3-5.4,1.8c-1.1,0.3-2.3,0.6-3.4,1c-10.1,2.8-20.6,5.4-31.5,7.8
	c-2.4,0.5-4.7,1.1-7.2,1.6c-11.7,2.5-23.8,4.7-36.3,6.6c-2.4,0.3-4.9,0.6-7.3,1c-11.6,1.7-23.4,3.1-35.4,4.3l-5.6,0.6
	c-13.2,1.2-26.7,2.2-40.1,2.9c-3,0.1-6,0.3-9,0.4c-13.8,0.6-27.5,0.9-41.2,0.9c-13.6,0-27.4-0.4-41.1-0.9c-3-0.2-6-0.3-9-0.4
	c-13.3-0.7-26.7-1.6-39.9-2.9l-5.7-0.6c-12-1.2-23.7-2.6-35.3-4.3c-2.4-0.3-4.9-0.6-7.3-1c-12.5-1.9-24.7-4.1-36.4-6.6
	c-2.5-0.5-4.7-1.1-7.1-1.6c-11-2.4-21.6-5-31.6-7.8c-1.1-0.3-2.2-0.6-3.2-0.9c-2-0.6-3.6-1.3-5.5-1.9c-5.3-1.7-10.4-3.5-15.4-5.3
	c-2.9-1-6.1-2-9-3c-1.8-0.7-3.7-1.5-5.5-2.2l-0.5-0.3c-8.6-3.5-17-7.5-25.1-12.1c-0.6-0.3-1-0.7-1.6-1c-6.4-3.8-12.5-8.1-18.1-13
	c-0.8-0.6-1.8-1.1-2.4-1.8v54.7c0,19.7,28.5,40.4,77.5,56.8c5.6,1.9,11.5,3.7,17.7,5.4c6.4,1.8,13.1,3.6,20.1,5.2
	c60.6,13.6,122.5,20.2,184.5,19.6c62.1,0.6,124.1-6,184.7-19.6c7-1.7,13.7-3.4,20.1-5.2c6.1-1.7,12.1-3.5,17.7-5.4
	c49-16.4,77.6-37.1,77.6-56.8v-54.7c-0.8,0.7-1.8,1.2-2.5,1.8C691.8,280.4,685.7,284.8,679.4,288.5 M700,186.9
	c0-41.1-123.2-86.9-300.1-86.9C223.2,100,100,145.8,100,186.9c0,19.7,28.5,40.5,77.5,56.8c5.7,1.9,11.5,3.7,17.8,5.5
	c6.4,1.8,13.1,3.5,20.1,5.2c60.5,13.6,122.4,20.1,184.5,19.5c62.1,0.6,124-5.9,184.6-19.5c7-1.7,13.7-3.4,20.1-5.2
	c6.2-1.7,12.1-3.5,17.8-5.4C671.5,227.4,700,206.6,700,186.9"/>
</svg>
