<?xml version="1.0" encoding="utf-8"?>
<!-- Generator: Adobe Illustrator 28.3.0, SVG Export Plug-In . SVG Version: 6.00 Build 0)  -->
<svg version="1.1" id="Layer_1" xmlns="http://www.w3.org/2000/svg" xmlns:xlink="http://www.w3.org/1999/xlink" x="0px" y="0px"
	 viewBox="0 0 800 800" style="enable-background:new 0 0 800 800;" xml:space="preserve">
<style type="text/css">
	.st0{fill:#FFFFFF;}
</style>
<path class="st0" d="M704,50H96c-25.4,0-46,20.6-46,46V704c0,25.4,20.6,46,46,46H704c25.4,0,46-20.6,46-46V96
	C750,70.6,729.4,50,704,50z M414,403h-73.5c-7.3,0-13.2,5.9-13.2,13.2l0,254.9c0,7.3-5.9,13.2-13.2,13.2h-52.8
	c-7.3,0-13.2-5.9-13.2-13.2V416.3c0-7.3-5.9-13.2-13.2-13.2h-73.1c-7.3,0-13.2-5.9-13.2-13.2v-36.7c0-7.3,5.9-13.2,13.2-13.2H414
	c7.3,0,13.2,5.9,13.2,13.2v36.7C427.3,397.1,421.4,403,414,403z M679.2,634.9c-0.2,0.3-0.3,0.7-0.5,1c-7.1,12.6-17.1,23.3-29.3,31.2
	c-13.3,8.5-28,14.4-43.4,17.5c-17.2,3.6-34.7,5.3-52.2,5.3c-18,0.1-36-1.5-53.7-4.8c-12.4-2.2-24.5-5.7-36.1-10.7
	c-4.9-2.1-8-6.9-8-12.2v-42.6c0-10.3,11.2-16.6,20-11.4c8,4.7,16.4,8.7,25.1,11.9c15.8,5.8,32.4,8.7,49.2,8.8
	c8.6,0.1,17.1-0.8,25.5-2.6c6.4-1.4,12.5-3.9,18.2-7.3c4.5-2.7,8.2-6.5,10.9-11c2.4-4.2,3.6-9,3.6-13.8c0.1-6.4-2-12.8-5.8-18
	c-4.3-5.8-9.6-10.7-15.6-14.6c-7.5-5-15.4-9.3-23.6-12.9c-9.1-4.2-18.9-8.4-29.4-12.7c-23-8.5-43.6-22.6-59.9-41
	c-13.3-16.6-20.3-37.3-19.7-58.5c-0.4-16,3.3-31.9,10.8-46.1c7.1-12.8,17.1-23.7,29.3-31.8c13.1-8.6,27.6-14.8,42.9-18.3
	c16.9-4,34.2-6,51.6-5.9c15.9-0.2,31.8,0.9,47.5,3.2c9.8,1.5,19.5,3.8,29,6.8c5.4,1.7,9.1,6.9,9.1,12.6v39.5
	c0,9.7-10,16.1-18.8,12.2l0,0c-6.8-3-13.8-5.5-20.9-7.5c-7-2-14.2-3.4-21.4-4.4c-6.7-0.9-13.4-1.4-20.2-1.4
	c-8-0.1-16.1,0.8-23.9,2.5c-6.4,1.4-12.5,3.8-18.2,7.1c-4.6,2.7-8.5,6.4-11.5,10.9c-2.7,4.3-4.1,9.2-4,14.3
	c-0.1,5.5,1.5,10.9,4.5,15.4c3.5,5,7.9,9.4,12.9,13c6.4,4.6,13.2,8.6,20.3,12c8,3.9,17,7.9,27,12.1c12.7,5.3,25,11.4,36.9,18.3
	c10.3,6,19.8,13.4,28.1,21.9c7.8,8,13.8,17.5,17.9,27.9C693.2,578.2,691.7,608.5,679.2,634.9z"/>
</svg>
