<?xml version="1.0" encoding="utf-8"?>
<!-- Generator: Adobe Illustrator 28.3.0, SVG Export Plug-In . SVG Version: 6.00 Build 0)  -->
<svg version="1.1" id="Layer_1" xmlns="http://www.w3.org/2000/svg" xmlns:xlink="http://www.w3.org/1999/xlink" x="0px" y="0px"
	 viewBox="0 0 800 800" style="enable-background:new 0 0 800 800;" xml:space="preserve">
<style type="text/css">
	.st0{fill:#FFFFFF;}
</style>
<path class="st0" d="M7.6,279c0,0-19.5-14.2,3.9-33.2L66,196.6c0,0,15.6-16.6,32.1-2.1l502.7,384.7v184.5c0,0-0.2,29-37,25.8
	L7.6,279z"/>
<path class="st0" d="M137.2,397.9L7.6,517c0,0-13.3,10,0,27.9l60.2,55.3c0,0,14.3,15.5,35.4-2.1l137.4-105.3L137.2,397.9z"/>
<path class="st0" d="M364.7,398.9l237.6-183.4L600.8,32c0,0-10.2-40-44-19.2L240.5,303.7L364.7,398.9z"/>
<path class="st0" d="M563.7,789.7c13.8,14.3,30.5,9.6,30.5,9.6L779.5,707c23.7-16.3,20.4-36.6,20.4-36.6V119.6
	c0-24.2-24.5-32.6-24.5-32.6L614.8,8.8c-35.1-21.9-58,3.9-58,3.9s29.5-21.5,44,19.2v728.3c0,5-1.1,9.9-3.2,14.4
	c-4.2,8.6-13.4,16.7-35.4,13.3L563.7,789.7z"/>
</svg>
