<?xml version="1.0" encoding="utf-8"?>
<!-- Generator: Adobe Illustrator 28.3.0, SVG Export Plug-In . SVG Version: 6.00 Build 0)  -->
<svg version="1.1" id="Layer_1" xmlns="http://www.w3.org/2000/svg" xmlns:xlink="http://www.w3.org/1999/xlink" x="0px" y="0px"
	 viewBox="0 0 800 800" style="enable-background:new 0 0 800 800;" xml:space="preserve">
<style type="text/css">
	.st0{fill:#FFFFFF;}
</style>
<path class="st0" d="M559.7,397.4c3.8,1.4,7.5,2.6,11.1,4.3c15,6.8,23.8,18.4,24.9,34.8c1.4,21.1,1.5,42.4,0.1,63.5
	c-1.6,24.4-24.2,43.1-49.4,42.4c-24.5-0.7-45.6-20.7-46.6-44.7c-0.6-14.7-0.1-29.5-0.2-44.2c0-8-0.1-8.1-8.2-8.1
	c-45.4,0-90.9,0.3-136.3-0.1c-29.6-0.2-47.4,16.1-49,48.7c-0.6,12.7-3.3,24.2-11.9,33.9c-13.2,15-29.9,20-49.1,15.5
	c-18.5-4.4-28.9-17.4-34.5-34.9c-3.9-12.2-1.9-24.6,0.4-36.5c11.4-59.9,45.5-100.2,104.2-118.5c11.9-3.7,24.4-5.5,36.8-5.5
	c31.3,0,62.7,0,94,0c4.3,0,8.6-0.4,12.8-0.7c23.4-1.7,38.9-17,40.7-45.1c0.1-2.1,0-4.3,0-6.4c0.4-26.3,20.2-46.5,46.4-47.5
	c26.2-1,47.9,17.6,49.8,43.9c2.5,36.1-8.8,68.2-30.4,96.9C563.4,391.7,560.6,393.9,559.7,397.4z M275,347.9
	c-8.6-0.3-19,0.6-29.4-1.2c-17.9-3-29.2-13-34-30.5c-5.2-19.1-3.2-36.6,11.7-50.8c15.2-14.5,33.2-18.7,52.9-10.5
	c17.3,7.2,28.6,24.4,29.7,43.1c0.8,14.8,0.1,29.7,0.2,44.5c0,3.9-1.4,5.6-5.4,5.5C292.7,347.8,284.7,347.9,275,347.9z M722.7,0H77.3
	C36.7,0,3.9,32.9,3.9,73.4v643.9c0,45.7,37,82.7,82.7,82.7h626.9c45.7,0,82.7-37,82.7-82.7V73.4C796.1,32.9,763.3,0,722.7,0z
	 M670.8,415.8c17.3,26.8,24.4,56.3,22.6,88.6c-3.6,62.9-47.1,115.8-108.3,130.5c-86.2,20.8-152.2-30.8-174.4-93.1
	c-3.6-10.1-5.3-20.7-7.5-32.8c-2.3,13.8-3.8,26.3-8.8,37.8c-23.2,53.9-62.8,86.8-122.2,93.3c-70.1,7.7-134.9-35.6-154.4-102.8
	c-8.3-28.8-5.8-58.2-2.3-87.5c2.7-21.8,10.7-42.3,21.1-61.6c1.9-3.5,1.9-6.1-0.3-9.5c-18.7-28.2-26-59.2-23.3-92.8
	c1.4-18,5.7-35.1,13.9-51.2c23.8-47.1,76.2-87,146.3-80.4c61.6,5.8,118.7,59,127.7,118.8c0.4,3,1.3,5.9,2.3,10.4
	c1.5-8,2.5-14.6,3.9-21.2c11.5-54.3,64.7-111.2,140-111.9c76.4-0.7,133,59.2,143.7,114.9c5.7,29.6,3,59.2-3.4,88.8
	c-3.7,17.2-10.3,33.6-17.5,49.7C667.8,408.2,668.1,411.5,670.8,415.8z"/>
</svg>
